<?xml version="1.0" encoding="UTF-8" standalone="no"?>
<!-- Created with Inkscape (http://www.inkscape.org/) -->

<svg
   width="103.11764mm"
   height="103.62891mm"
   viewBox="0 0 103.11764 103.62891"
   version="1.1"
   id="svg1"
   inkscape:version="1.4 (86a8ad7, 2024-10-11)"
   sodipodi:docname="websafe.svg"
   xmlns:inkscape="http://www.inkscape.org/namespaces/inkscape"
   xmlns:sodipodi="http://sodipodi.sourceforge.net/DTD/sodipodi-0.dtd"
   xmlns="http://www.w3.org/2000/svg"
   xmlns:svg="http://www.w3.org/2000/svg">
  <sodipodi:namedview
     id="namedview1"
     pagecolor="#ffffff"
     bordercolor="#000000"
     borderopacity="0.25"
     inkscape:showpageshadow="2"
     inkscape:pageopacity="0.0"
     inkscape:pagecheckerboard="0"
     inkscape:deskcolor="#d1d1d1"
     inkscape:document-units="mm"
     inkscape:zoom="1.0806047"
     inkscape:cx="312.78784"
     inkscape:cy="379.87991"
     inkscape:window-width="2560"
     inkscape:window-height="1494"
     inkscape:window-x="-11"
     inkscape:window-y="-11"
     inkscape:window-maximized="1"
     inkscape:current-layer="layer1" />
  <defs
     id="defs1">
    <rect
       x="270.21909"
       y="455.30066"
       width="251.71092"
       height="223.02328"
       id="rect2" />
  </defs>
  <g
     inkscape:label="Layer 1"
     inkscape:groupmode="layer"
     id="layer1"
     transform="translate(-22.3465,-48.033909)">
    <rect
       style="fill:#1a1a1a;fill-opacity:1;stroke-width:0.264583"
       id="rect1"
       width="100"
       height="100"
       x="25.46414"
       y="51.662819"
       ry="8.5696621" />
    <rect
       style="fill:#13af8d;fill-opacity:1;stroke-width:0.264583"
       id="rect1-8"
       width="100"
       height="100"
       x="22.3465"
       y="48.033909"
       ry="8.5696621" />
    <path
       style="font-size:96px;font-family:'Instrument Serif';-inkscape-font-specification:'Instrument Serif';text-align:center;text-anchor:middle;white-space:pre;fill:#1a1a1a"
       d="m 329.83414,543.74849 q -7.104,0 -12.48,-4.416 -5.28,-4.416 -8.256,-12.384 -2.88,-8.064 -2.88,-19.008 0,-10.56 3.168,-18.432 3.264,-7.968 8.64,-12.288 5.472,-4.416 12.096,-4.416 3.936,0 6.912,0.768 2.976,0.672 5.28,1.824 1.152,0.672 1.152,2.016 l 0.288,14.592 q 0,1.632 -1.152,1.632 -1.056,0 -1.344,-1.248 l -0.96,-3.552 q -2.016,-7.488 -4.704,-10.368 -2.592,-2.88 -6.24,-2.88 -6.72,0 -11.232,8.352 -4.416,8.256 -4.416,24 0,10.752 2.208,18.144 2.304,7.392 5.856,11.136 3.648,3.744 7.68,3.744 4.32,0 6.912,-2.688 2.688,-2.688 4.512,-10.368 l 1.152,-4.704 q 0.288,-1.44 1.536,-1.248 1.056,0.192 1.056,1.632 l -0.384,15.552 q 0,1.344 -1.248,2.016 -2.304,1.152 -5.472,1.824 -3.072,0.768 -7.68,0.768 z m 43.39204,0 q -4.608,0 -8.64,-2.688 -4.032,-2.784 -7.104,-7.584 -2.976,-4.8 -4.704,-11.232 -1.632,-6.528 -1.632,-14.016 0,-7.488 1.632,-13.92 1.728,-6.432 4.704,-11.232 3.072,-4.896 7.104,-7.584 4.032,-2.688 8.64,-2.688 4.608,0 8.544,2.688 4.032,2.688 7.104,7.584 3.072,4.8 4.704,11.232 1.728,6.432 1.728,13.92 0,7.488 -1.728,14.016 -1.632,6.432 -4.704,11.232 -3.072,4.8 -7.104,7.584 -3.936,2.688 -8.544,2.688 z m 0,-2.592 q 6.816,0 10.656,-8.16 3.84,-8.16 3.84,-24.768 0,-16.608 -3.84,-24.672 -3.84,-8.16 -10.656,-8.16 -6.72,0 -10.656,8.16 -3.84,8.064 -3.84,24.672 0,16.608 3.84,24.768 3.936,8.16 10.656,8.16 z m 68.16007,2.592 q -8.352,0 -10.656,-10.944 l -2.208,-10.656 q -1.056,-5.184 -2.4,-7.872 -1.248,-2.688 -3.552,-3.648 -2.208,-0.96 -6.144,-0.96 -1.344,0 -2.112,0.768 -0.768,0.672 -0.768,1.728 v 24 q 0,2.016 0.768,2.784 0.768,0.672 3.456,1.152 l 3.552,0.576 q 1.056,0.192 1.056,1.056 0,1.152 -1.44,1.152 h -19.488 q -1.44,0 -1.44,-1.056 0,-0.864 1.248,-1.152 l 2.208,-0.384 q 2.016,-0.384 2.592,-1.056 0.672,-0.672 0.672,-2.688 v -56.448 q 0,-2.016 -0.672,-2.688 -0.576,-0.672 -2.592,-1.056 l -2.208,-0.384 q -1.248,-0.288 -1.248,-1.152 0,-1.056 1.44,-1.056 h 19.488 q 5.664,0 10.08,2.208 4.416,2.208 6.912,6.144 2.496,3.84 2.496,8.928 0,6.048 -3.648,10.944 -3.648,4.8 -9.216,6.816 -0.672,0.192 -0.768,0.672 0,0.384 0.672,0.672 3.072,1.44 4.8,4.032 1.824,2.592 2.784,6.912 l 2.112,9.792 q 1.056,4.992 2.496,7.104 1.44,2.112 3.648,2.112 0.768,0 1.344,-0.192 0.672,-0.288 1.632,-0.96 0.768,-0.48 1.44,-0.192 0.672,0.192 0.672,0.96 0,1.632 -2.112,2.88 -2.112,1.152 -4.896,1.152 z m -21.408,-36.48 q 6.528,0 9.888,-4.32 3.36,-4.416 3.36,-11.712 0,-7.104 -3.936,-11.04 -3.84,-4.032 -10.656,-4.032 -5.088,0 -5.088,3.84 v 21.984 q 0,5.28 6.432,5.28 z m 29.56813,35.616 q -1.44,0 -1.44,-1.056 0,-0.864 1.248,-1.152 l 2.208,-0.384 q 2.016,-0.384 2.592,-1.056 0.672,-0.672 0.672,-2.688 v -56.448 q 0,-2.016 -0.672,-2.688 -0.576,-0.672 -2.592,-1.056 l -2.208,-0.384 q -1.248,-0.288 -1.248,-1.152 0,-1.056 1.44,-1.056 h 32.256 q 2.208,0 2.4,2.208 l 0.768,15.936 q 0.192,1.632 -1.248,1.632 -1.152,0 -1.344,-1.248 l -0.576,-3.552 q -1.056,-6.528 -4.32,-9.504 -3.264,-3.072 -9.024,-3.072 -3.84,0 -5.376,1.152 -1.44,1.056 -1.44,3.84 v 23.136 q 0,1.344 1.344,1.344 h 4.8 q 4.224,0 5.184,-4.512 l 0.96,-4.8 q 0.384,-1.44 1.632,-1.248 1.056,0.192 1.056,1.632 v 21.6 q 0,1.44 -1.056,1.632 -1.248,0.192 -1.632,-1.248 l -0.96,-4.704 q -0.672,-3.36 -1.92,-4.416 -1.152,-1.056 -3.36,-1.056 h -4.704 q -1.344,0 -1.344,1.344 v 24.096 q 0,3.456 1.728,4.992 1.824,1.536 6.528,1.536 4.8,0 8.16,-2.4 3.456,-2.496 4.8,-9.216 l 1.152,-5.664 q 0.288,-1.248 1.44,-1.248 1.344,0 1.152,1.632 l -0.96,17.088 q -0.192,2.208 -2.4,2.208 z"
       id="text1"
       transform="matrix(0.26458333,0,0,0.26458333,-8.8145095,0.24484749)"
       aria-label="CORE" />
  </g>
</svg>
